<svg xmlns="http://www.w3.org/2000/svg" viewBox="0 0 100 125" x="0px" y="0px"><defs><style>.cls-1{fill:#111;}</style></defs><title>Origami icon_bee</title><g data-name="Layer 2"><path class="cls-1" d="M13.45,49.33a.75.75,0,0,1-.69-.46.74.74,0,0,1,.17-.84L25.47,36.11a1,1,0,0,1,.24-.15L59.14,22.58a.75.75,0,0,1,.62,0,.74.74,0,0,1,.38.48,18.64,18.64,0,0,0,5.19,8.74.77.77,0,0,1,.24.53.75.75,0,0,1-.21.55L51.52,47.15a.77.77,0,0,1-.5.22l-37.53,2Zm13-12-11,10.42,35.22-1.83,13.1-13.48a20.45,20.45,0,0,1-4.83-8.13Z"/><path class="cls-1" d="M59.7,23.41a.73.73,0,0,1-.52-.21.76.76,0,0,1-.19-.78c1.71-5,6.8-7,7-7.08a.69.69,0,0,1,.24-.05l5.51-.17a.79.79,0,0,1,.56.23l1.44,1.47a.77.77,0,0,1,.2.68.78.78,0,0,1-.46.54L60,23.36A.81.81,0,0,1,59.7,23.41Zm6.72-6.63a12,12,0,0,0-5.26,4.5l10.73-4.22-.42-.43Z"/><path class="cls-1" d="M74.71,37.75h-.08a19.93,19.93,0,0,1-10.32-4.8,20.13,20.13,0,0,1-5.71-9.85.74.74,0,0,1,.46-.84l14.11-5.64a.76.76,0,0,1,.79.14l5.61,5.13a.76.76,0,0,1,.21.77L75.43,37.21A.76.76,0,0,1,74.71,37.75Zm-9.37-5.91a18.87,18.87,0,0,0,8.84,4.31l4-13.48-4.92-4.49L60.23,23.4a18.82,18.82,0,0,0,5.09,8.43Z"/><path class="cls-1" d="M53.29,85.75a.62.62,0,0,1-.23,0,.74.74,0,0,1-.52-.68L51.13,47.47a.72.72,0,0,1,.18-.52L64.25,31.89a.79.79,0,0,1,.52-.26.75.75,0,0,1,.55.2,18.68,18.68,0,0,0,9.17,4.38.75.75,0,0,1,.52.34.77.77,0,0,1,.08.61L64.76,71.65a.66.66,0,0,1-.13.25L53.88,85.47A.74.74,0,0,1,53.29,85.75Zm-.65-38L54,82.94l9.4-11.86L73.42,37.53a20.4,20.4,0,0,1-8.53-4.08ZM64,71.44h0Z"/><path class="cls-1" d="M75,37.36a.72.72,0,0,1-.49-.19.75.75,0,0,1-.23-.77l4.09-13.94a.72.72,0,0,1,.5-.5.75.75,0,0,1,.69.13l1.59,1.3a.74.74,0,0,1,.28.54l.33,5.5a1,1,0,0,1,0,.25c-.06.22-1.56,5.46-6.42,7.62A.81.81,0,0,1,75,37.36ZM79.45,24,76.21,35a11.86,11.86,0,0,0,4-5.65l-.3-5Z"/><path class="cls-1" d="M35.82,64.86a.8.8,0,0,1-.26,0,.51.51,0,0,1-.16-.09.72.72,0,0,1-.27-.3.81.81,0,0,1-.06-.43l-.57-16.5a.76.76,0,0,1,.42-.7l.11,0a.6.6,0,0,1,.29-.08l15.3-.8L64.17,32h0a.75.75,0,0,1,1.1,1L52.66,47.73,53.24,63a.63.63,0,0,1-.05.3l0,.12a.75.75,0,0,1-.65.47L36,64.85ZM36,48.12l.51,15.19,15.18-.84-.57-15a1.11,1.11,0,0,1,0-.19l-.18,0Z"/><path class="cls-1" d="M78.08,22.29a.74.74,0,0,1-.5-.2L75.82,20.5l-.07-.06-1.83-1.69a.76.76,0,0,1-.19-.82.75.75,0,0,1,.7-.48h3.29a.65.65,0,0,1,.31,0,.72.72,0,0,1,.2.09.75.75,0,0,1,.24.29.72.72,0,0,1,.08.35l.28,3.26a.76.76,0,0,1-.41.74A.81.81,0,0,1,78.08,22.29Zm-1.38-3,.07,0,.4.37-.06-.76h-.77Z"/></g></svg>
